<?xml version="1.0" encoding="UTF-8"?>
<svg xmlns="http://www.w3.org/2000/svg" viewBox="0 0 1200 700" width="1200" height="700">
  <defs>
    <linearGradient id="irBg" x1="0%" y1="0%" x2="100%" y2="100%">
      <stop offset="0%" style="stop-color:#0d1117"/>
      <stop offset="100%" style="stop-color:#161b22"/>
    </linearGradient>
    <linearGradient id="irPrep" x1="0%" y1="0%" x2="0%" y2="100%">
      <stop offset="0%" style="stop-color:#3fb950"/>
      <stop offset="100%" style="stop-color:#238636"/>
    </linearGradient>
    <linearGradient id="irDetect" x1="0%" y1="0%" x2="0%" y2="100%">
      <stop offset="0%" style="stop-color:#58a6ff"/>
      <stop offset="100%" style="stop-color:#1f6feb"/>
    </linearGradient>
    <linearGradient id="irContain" x1="0%" y1="0%" x2="0%" y2="100%">
      <stop offset="0%" style="stop-color:#f85149"/>
      <stop offset="100%" style="stop-color:#da3633"/>
    </linearGradient>
    <linearGradient id="irEradicate" x1="0%" y1="0%" x2="0%" y2="100%">
      <stop offset="0%" style="stop-color:#f0883e"/>
      <stop offset="100%" style="stop-color:#d18616"/>
    </linearGradient>
    <linearGradient id="irRecover" x1="0%" y1="0%" x2="0%" y2="100%">
      <stop offset="0%" style="stop-color:#bc8cff"/>
      <stop offset="100%" style="stop-color:#8b5cf6"/>
    </linearGradient>
    <linearGradient id="irLessons" x1="0%" y1="0%" x2="0%" y2="100%">
      <stop offset="0%" style="stop-color:#39d2c0"/>
      <stop offset="100%" style="stop-color:#1a9e8f"/>
    </linearGradient>
    <linearGradient id="irCritGrad" x1="0%" y1="0%" x2="100%" y2="0%">
      <stop offset="0%" style="stop-color:#f85149"/>
      <stop offset="33%" style="stop-color:#f0883e"/>
      <stop offset="66%" style="stop-color:#d29922"/>
      <stop offset="100%" style="stop-color:#3fb950"/>
    </linearGradient>
    <filter id="irShadow" x="-5%" y="-5%" width="115%" height="115%">
      <feDropShadow dx="2" dy="3" stdDeviation="4" flood-color="#000000" flood-opacity="0.5"/>
    </filter>
    <filter id="irPulse">
      <feGaussianBlur stdDeviation="2" result="blur"/>
      <feMerge>
        <feMergeNode in="blur"/>
        <feMergeNode in="SourceGraphic"/>
      </feMerge>
    </filter>
    <marker id="irArrow" markerWidth="10" markerHeight="7" refX="9" refY="3.5" orient="auto">
      <path d="M0,0 L10,3.5 L0,7 L2,3.5 Z" fill="#58a6ff"/>
    </marker>
    <marker id="irArrowRed" markerWidth="10" markerHeight="7" refX="9" refY="3.5" orient="auto">
      <path d="M0,0 L10,3.5 L0,7 L2,3.5 Z" fill="#f85149"/>
    </marker>
    <marker id="irArrowGreen" markerWidth="10" markerHeight="7" refX="9" refY="3.5" orient="auto">
      <path d="M0,0 L10,3.5 L0,7 L2,3.5 Z" fill="#3fb950"/>
    </marker>
    <pattern id="irGrid" width="25" height="25" patternUnits="userSpaceOnUse">
      <path d="M 25 0 L 0 0 0 25" fill="none" stroke="#21262d" stroke-width="0.4" opacity="0.5"/>
    </pattern>
  </defs>

  <!-- Background -->
  <rect width="1200" height="700" fill="url(#irBg)" rx="12"/>
  <rect width="1200" height="700" fill="url(#irGrid)" rx="12"/>
  <rect x="1" y="1" width="1198" height="698" fill="none" stroke="#30363d" stroke-width="2" rx="12"/>

  <!-- Title Bar -->
  <rect x="0" y="0" width="1200" height="50" fill="#0d1117" rx="12" ry="12"/>
  <rect x="0" y="28" width="1200" height="22" fill="#0d1117"/>
  <line x1="0" y1="50" x2="1200" y2="50" stroke="#30363d" stroke-width="1.5"/>
  <circle cx="24" cy="25" r="7" fill="#f85149"/>
  <circle cx="46" cy="25" r="7" fill="#d29922"/>
  <circle cx="68" cy="25" r="7" fill="#3fb950"/>
  <text x="600" y="32" font-family="'Courier New', monospace" font-size="14" fill="#c9d1d9" text-anchor="middle" font-weight="bold">🚨 Incident Response Workflow — NIST SP 800-61 Framework</text>

  <!-- ===== Severity Scale ===== -->
  <g filter="url(#irShadow)">
    <rect x="20" y="60" width="1160" height="30" rx="6" fill="#161b22" stroke="#30363d" stroke-width="1"/>
    <text x="35" y="80" font-family="'Segoe UI', Arial, sans-serif" font-size="9" fill="#8b949e">Severity:</text>
    <rect x="85" y="68" width="60" height="16" rx="3" fill="#f85149"/>
    <text x="115" y="80" font-family="'Courier New', monospace" font-size="8" fill="#ffffff" text-anchor="middle">P1 Critical</text>
    <rect x="150" y="68" width="55" height="16" rx="3" fill="#f0883e"/>
    <text x="177" y="80" font-family="'Courier New', monospace" font-size="8" fill="#ffffff" text-anchor="middle">P2 High</text>
    <rect x="210" y="68" width="50" height="16" rx="3" fill="#d29922"/>
    <text x="235" y="80" font-family="'Courier New', monospace" font-size="8" fill="#ffffff" text-anchor="middle">P3 Med</text>
    <rect x="265" y="68" width="50" height="16" rx="3" fill="#3fb950"/>
    <text x="290" y="80" font-family="'Courier New', monospace" font-size="8" fill="#ffffff" text-anchor="middle">P4 Low</text>

    <text x="340" y="80" font-family="'Segoe UI', Arial, sans-serif" font-size="9" fill="#8b949e">SLA:</text>
    <text x="365" y="80" font-family="'Courier New', monospace" font-size="8" fill="#f85149">P1: 15min | P2: 1hr | P3: 4hr | P4: 24hr</text>

    <text x="620" y="80" font-family="'Segoe UI', Arial, sans-serif" font-size="9" fill="#8b949e">Current Status:</text>
    <rect x="700" y="68" width="80" height="16" rx="3" fill="#f85149"/>
    <text x="740" y="80" font-family="'Courier New', monospace" font-size="8" fill="#ffffff" text-anchor="middle">🚨 ACTIVE</text>
    <text x="790" y="80" font-family="'Segoe UI', Arial, sans-serif" font-size="9" fill="#8b949e">IR-2024-0847</text>
    <text x="910" y="80" font-family="'Segoe UI', Arial, sans-serif" font-size="9" fill="#8b949e">Severity:</text>
    <rect x="960" y="68" width="55" height="16" rx="3" fill="#f85149"/>
    <text x="987" y="80" font-family="'Courier New', monospace" font-size="8" fill="#ffffff" text-anchor="middle">P1 Crit</text>
    <text x="1025" y="80" font-family="'Segoe UI', Arial, sans-serif" font-size="9" fill="#8b949e">Team Lead:</text>
    <text x="1085" y="80" font-family="'Courier New', monospace" font-size="8" fill="#58a6ff">@lazzyroot505</text>
  </g>

  <!-- ===== PHASE 1: Preparation ===== -->
  <g filter="url(#irShadow)">
    <rect x="20" y="100" width="185" height="260" rx="10" fill="#161b22" stroke="#3fb950" stroke-width="2"/>
    <rect x="20" y="100" width="185" height="28" rx="10" ry="10" fill="url(#irPrep)"/>
    <rect x="20" y="118" width="185" height="10" fill="url(#irPrep)"/>
    <text x="112" y="120" font-family="'Segoe UI', Arial, sans-serif" font-size="11" fill="#ffffff" text-anchor="middle" font-weight="bold">1️⃣ PREPARATION</text>

    <!-- Sub-steps -->
    <rect x="32" y="138" width="160" height="28" rx="5" fill="#0d1117" stroke="#30363d" stroke-width="1"/>
    <circle cx="44" cy="152" r="6" fill="#3fb950"/>
    <text x="44" y="155" font-family="'Courier New', monospace" font-size="6" fill="#ffffff" text-anchor="middle">✓</text>
    <text x="56" y="149" font-family="'Segoe UI', Arial, sans-serif" font-size="8" fill="#c9d1d9">IR Playbooks</text>
    <text x="56" y="160" font-family="'Courier New', monospace" font-size="7" fill="#8b949e">42 documented scenarios</text>

    <rect x="32" y="172" width="160" height="28" rx="5" fill="#0d1117" stroke="#30363d" stroke-width="1"/>
    <circle cx="44" cy="186" r="6" fill="#3fb950"/>
    <text x="44" y="189" font-family="'Courier New', monospace" font-size="6" fill="#ffffff" text-anchor="middle">✓</text>
    <text x="56" y="183" font-family="'Segoe UI', Arial, sans-serif" font-size="8" fill="#c9d1d9">Team Training</text>
    <text x="56" y="194" font-family="'Courier New', monospace" font-size="7" fill="#8b949e">Tabletop + red team</text>

    <rect x="32" y="206" width="160" height="28" rx="5" fill="#0d1117" stroke="#30363d" stroke-width="1"/>
    <circle cx="44" cy="220" r="6" fill="#3fb950"/>
    <text x="44" y="223" font-family="'Courier New', monospace" font-size="6" fill="#ffffff" text-anchor="middle">✓</text>
    <text x="56" y="217" font-family="'Segoe UI', Arial, sans-serif" font-size="8" fill="#c9d1d9">Tool Deployment</text>
    <text x="56" y="228" font-family="'Courier New', monospace" font-size="7" fill="#8b949e">SOAR + Forensics kit</text>

    <rect x="32" y="240" width="160" height="28" rx="5" fill="#0d1117" stroke="#30363d" stroke-width="1"/>
    <circle cx="44" cy="254" r="6" fill="#3fb950"/>
    <text x="44" y="257" font-family="'Courier New', monospace" font-size="6" fill="#ffffff" text-anchor="middle">✓</text>
    <text x="56" y="251" font-family="'Segoe UI', Arial, sans-serif" font-size="8" fill="#c9d1d9">Communication Plan</text>
    <text x="56" y="262" font-family="'Courier New', monospace" font-size="7" fill="#8b949e">Slack + PagerDuty</text>

    <rect x="32" y="274" width="160" height="28" rx="5" fill="#0d1117" stroke="#30363d" stroke-width="1"/>
    <circle cx="44" cy="288" r="6" fill="#3fb950"/>
    <text x="44" y="291" font-family="'Courier New', monospace" font-size="6" fill="#ffffff" text-anchor="middle">✓</text>
    <text x="56" y="285" font-family="'Segoe UI', Arial, sans-serif" font-size="8" fill="#c9d1d9">Asset Inventory</text>
    <text x="56" y="296" font-family="'Courier New', monospace" font-size="7" fill="#8b949e">CMDB + Network map</text>

    <rect x="32" y="308" width="160" height="28" rx="5" fill="#0d1117" stroke="#30363d" stroke-width="1"/>
    <circle cx="44" cy="322" r="6" fill="#3fb950"/>
    <text x="44" y="325" font-family="'Courier New', monospace" font-size="6" fill="#ffffff" text-anchor="middle">✓</text>
    <text x="56" y="319" font-family="'Segoe UI', Arial, sans-serif" font-size="8" fill="#c9d1d9">Backup &amp; Recovery</text>
    <text x="56" y="330" font-family="'Courier New', monospace" font-size="7" fill="#8b949e">Immutable backups ✓</text>

    <!-- SOC Roles -->
    <rect x="32" y="342" width="160" height="14" rx="3" fill="#238636" opacity="0.3"/>
    <text x="112" y="353" font-family="'Courier New', monospace" font-size="7" fill="#3fb950" text-anchor="middle">IR Commander | SOC Analysts</text>
  </g>

  <!-- Arrow 1→2 -->
  <line x1="205" y1="230" x2="225" y2="230" stroke="#3fb950" stroke-width="2.5" marker-end="url(#irArrowGreen)"/>

  <!-- ===== PHASE 2: Detection & Analysis ===== -->
  <g filter="url(#irShadow)">
    <rect x="228" y="100" width="185" height="260" rx="10" fill="#161b22" stroke="#58a6ff" stroke-width="2"/>
    <rect x="228" y="100" width="185" height="28" rx="10" ry="10" fill="url(#irDetect)"/>
    <rect x="228" y="118" width="185" height="10" fill="url(#irDetect)"/>
    <text x="320" y="120" font-family="'Segoe UI', Arial, sans-serif" font-size="11" fill="#ffffff" text-anchor="middle" font-weight="bold">2️⃣ DETECTION &amp; ANALYSIS</text>

    <rect x="240" y="138" width="160" height="28" rx="5" fill="#0d1117" stroke="#30363d" stroke-width="1"/>
    <circle cx="252" cy="152" r="6" fill="#58a6ff"/>
    <text x="252" y="155" font-family="'Courier New', monospace" font-size="6" fill="#ffffff" text-anchor="middle">2</text>
    <text x="264" y="149" font-family="'Segoe UI', Arial, sans-serif" font-size="8" fill="#c9d1d9">Alert Triage</text>
    <text x="264" y="160" font-family="'Courier New', monospace" font-size="7" fill="#8b949e">SIEM correlation rules</text>

    <rect x="240" y="172" width="160" height="28" rx="5" fill="#0d1117" stroke="#30363d" stroke-width="1"/>
    <circle cx="252" cy="186" r="6" fill="#58a6ff"/>
    <text x="252" y="189" font-family="'Courier New', monospace" font-size="6" fill="#ffffff" text-anchor="middle">2</text>
    <text x="264" y="183" font-family="'Segoe UI', Arial, sans-serif" font-size="8" fill="#c9d1d9">IOC Collection</text>
    <text x="264" y="194" font-family="'Courier New', monospace" font-size="7" fill="#8b949e">IPs, hashes, domains</text>

    <rect x="240" y="206" width="160" height="28" rx="5" fill="#0d1117" stroke="#30363d" stroke-width="1"/>
    <circle cx="252" cy="220" r="6" fill="#58a6ff"/>
    <text x="252" y="223" font-family="'Courier New', monospace" font-size="6" fill="#ffffff" text-anchor="middle">2</text>
    <text x="264" y="217" font-family="'Segoe UI', Arial, sans-serif" font-size="8" fill="#c9d1d9">Threat Intel Lookup</text>
    <text x="264" y="228" font-family="'Courier New', monospace" font-size="7" fill="#8b949e">MISP + VirusTotal + MITRE</text>

    <rect x="240" y="240" width="160" height="28" rx="5" fill="#0d1117" stroke="#30363d" stroke-width="1"/>
    <circle cx="252" cy="254" r="6" fill="#58a6ff"/>
    <text x="252" y="257" font-family="'Courier New', monospace" font-size="6" fill="#ffffff" text-anchor="middle">2</text>
    <text x="264" y="251" font-family="'Segoe UI', Arial, sans-serif" font-size="8" fill="#c9d1d9">Malware Analysis</text>
    <text x="264" y="262" font-family="'Courier New', monospace" font-size="7" fill="#8b949e">Sandbox + reverse eng</text>

    <rect x="240" y="274" width="160" height="28" rx="5" fill="#0d1117" stroke="#30363d" stroke-width="1"/>
    <circle cx="252" cy="288" r="6" fill="#58a6ff"/>
    <text x="252" y="291" font-family="'Courier New', monospace" font-size="6" fill="#ffffff" text-anchor="middle">2</text>
    <text x="264" y="285" font-family="'Segoe UI', Arial, sans-serif" font-size="8" fill="#c9d1d9">Timeline Creation</text>
    <text x="264" y="296" font-family="'Courier New', monospace" font-size="7" fill="#8b949e">Attack reconstruction</text>

    <rect x="240" y="308" width="160" height="28" rx="5" fill="#0d1117" stroke="#30363d" stroke-width="1"/>
    <circle cx="252" cy="322" r="6" fill="#58a6ff"/>
    <text x="252" y="325" font-family="'Courier New', monospace" font-size="6" fill="#ffffff" text-anchor="middle">2</text>
    <text x="264" y="319" font-family="'Segoe UI', Arial, sans-serif" font-size="8" fill="#c9d1d9">Severity Assessment</text>
    <text x="264" y="330" font-family="'Courier New', monospace" font-size="7" fill="#8b949e">Impact + scope analysis</text>

    <rect x="240" y="342" width="160" height="14" rx="3" fill="#1f6feb" opacity="0.3"/>
    <text x="320" y="353" font-family="'Courier New', monospace" font-size="7" fill="#58a6ff" text-anchor="middle">Tier 2/3 Analysts | Threat Hunters</text>
  </g>

  <!-- Arrow 2→3 -->
  <line x1="413" y1="230" x2="433" y2="230" stroke="#f85149" stroke-width="2.5" marker-end="url(#irArrowRed)"/>

  <!-- ===== PHASE 3: Containment ===== -->
  <g filter="url(#irShadow)">
    <rect x="436" y="100" width="185" height="260" rx="10" fill="#161b22" stroke="#f85149" stroke-width="2"/>
    <rect x="436" y="100" width="185" height="28" rx="10" ry="10" fill="url(#irContain)"/>
    <rect x="436" y="118" width="185" height="10" fill="url(#irContain)"/>
    <text x="528" y="120" font-family="'Segoe UI', Arial, sans-serif" font-size="11" fill="#ffffff" text-anchor="middle" font-weight="bold">3️⃣ CONTAINMENT</text>

    <rect x="448" y="138" width="160" height="28" rx="5" fill="#0d1117" stroke="#f85149" stroke-width="1"/>
    <circle cx="460" cy="152" r="6" fill="#f85149"/>
    <text x="460" y="155" font-family="'Courier New', monospace" font-size="6" fill="#ffffff" text-anchor="middle">3</text>
    <text x="472" y="149" font-family="'Segoe UI', Arial, sans-serif" font-size="8" fill="#c9d1d9">Short-term Containment</text>
    <text x="472" y="160" font-family="'Courier New', monospace" font-size="7" fill="#f87171">Isolate affected systems</text>

    <rect x="448" y="172" width="160" height="28" rx="5" fill="#0d1117" stroke="#f85149" stroke-width="1"/>
    <circle cx="460" cy="186" r="6" fill="#f85149"/>
    <text x="460" y="189" font-family="'Courier New', monospace" font-size="6" fill="#ffffff" text-anchor="middle">3</text>
    <text x="472" y="183" font-family="'Segoe UI', Arial, sans-serif" font-size="8" fill="#c9d1d9">Network Isolation</text>
    <text x="472" y="194" font-family="'Courier New', monospace" font-size="7" fill="#f87171">Firewall rules + VLAN</text>

    <rect x="448" y="206" width="160" height="28" rx="5" fill="#0d1117" stroke="#f85149" stroke-width="1"/>
    <circle cx="460" cy="220" r="6" fill="#f85149"/>
    <text x="460" y="223" font-family="'Courier New', monospace" font-size="6" fill="#ffffff" text-anchor="middle">3</text>
    <text x="472" y="217" font-family="'Segoe UI', Arial, sans-serif" font-size="8" fill="#c9d1d9">Account Lockout</text>
    <text x="472" y="228" font-family="'Courier New', monospace" font-size="7" fill="#f87171">Disable compromised IDs</text>

    <rect x="448" y="240" width="160" height="28" rx="5" fill="#0d1117" stroke="#d29922" stroke-width="1"/>
    <circle cx="460" cy="254" r="6" fill="#d29922"/>
    <text x="460" y="257" font-family="'Courier New', monospace" font-size="6" fill="#ffffff" text-anchor="middle">3</text>
    <text x="472" y="251" font-family="'Segoe UI', Arial, sans-serif" font-size="8" fill="#c9d1d9">Long-term Containment</text>
    <text x="472" y="262" font-family="'Courier New', monospace" font-size="7" fill="#d29922">Patches + temp controls</text>

    <rect x="448" y="274" width="160" height="28" rx="5" fill="#0d1117" stroke="#d29922" stroke-width="1"/>
    <circle cx="460" cy="288" r="6" fill="#d29922"/>
    <text x="460" y="291" font-family="'Courier New', monospace" font-size="6" fill="#ffffff" text-anchor="middle">3</text>
    <text x="472" y="285" font-family="'Segoe UI', Arial, sans-serif" font-size="8" fill="#c9d1d9">Evidence Preservation</text>
    <text x="472" y="296" font-family="'Courier New', monospace" font-size="7" fill="#d29922">Memory + disk images</text>

    <rect x="448" y="308" width="160" height="28" rx="5" fill="#0d1117" stroke="#d29922" stroke-width="1"/>
    <circle cx="460" cy="322" r="6" fill="#d29922"/>
    <text x="460" y="325" font-family="'Courier New', monospace" font-size="6" fill="#ffffff" text-anchor="middle">3</text>
    <text x="472" y="319" font-family="'Segoe UI', Arial, sans-serif" font-size="8" fill="#c9d1d9">Escalation Protocol</text>
    <text x="472" y="330" font-family="'Courier New', monospace" font-size="7" fill="#d29922">Notify CISO / Legal</text>

    <rect x="448" y="342" width="160" height="14" rx="3" fill="#da3633" opacity="0.3"/>
    <text x="528" y="353" font-family="'Courier New', monospace" font-size="7" fill="#f85149" text-anchor="middle">IR Commander | SysAdmins | NetOps</text>
  </g>

  <!-- Arrow 3→4 -->
  <line x1="621" y1="230" x2="641" y2="230" stroke="#f0883e" stroke-width="2.5" marker-end="url(#irArrow)"/>

  <!-- ===== PHASE 4: Eradication ===== -->
  <g filter="url(#irShadow)">
    <rect x="644" y="100" width="185" height="260" rx="10" fill="#161b22" stroke="#f0883e" stroke-width="2"/>
    <rect x="644" y="100" width="185" height="28" rx="10" ry="10" fill="url(#irEradicate)"/>
    <rect x="644" y="118" width="185" height="10" fill="url(#irEradicate)"/>
    <text x="736" y="120" font-family="'Segoe UI', Arial, sans-serif" font-size="11" fill="#ffffff" text-anchor="middle" font-weight="bold">4️⃣ ERADICATION</text>

    <rect x="656" y="138" width="160" height="28" rx="5" fill="#0d1117" stroke="#f0883e" stroke-width="1"/>
    <circle cx="668" cy="152" r="6" fill="#f0883e"/>
    <text x="668" y="155" font-family="'Courier New', monospace" font-size="6" fill="#ffffff" text-anchor="middle">4</text>
    <text x="680" y="149" font-family="'Segoe UI', Arial, sans-serif" font-size="8" fill="#c9d1d9">Malware Removal</text>
    <text x="680" y="160" font-family="'Courier New', monospace" font-size="7" fill="#fbbf24">AV + EDR cleanup</text>

    <rect x="656" y="172" width="160" height="28" rx="5" fill="#0d1117" stroke="#f0883e" stroke-width="1"/>
    <circle cx="668" cy="186" r="6" fill="#f0883e"/>
    <text x="668" y="189" font-family="'Courier New', monospace" font-size="6" fill="#ffffff" text-anchor="middle">4</text>
    <text x="680" y="183" font-family="'Segoe UI', Arial, sans-serif" font-size="8" fill="#c9d1d9">Root Cause Analysis</text>
    <text x="680" y="194" font-family="'Courier New', monospace" font-size="7" fill="#fbbf24">Vulnerability identification</text>

    <rect x="656" y="206" width="160" height="28" rx="5" fill="#0d1117" stroke="#f0883e" stroke-width="1"/>
    <circle cx="668" cy="220" r="6" fill="#f0883e"/>
    <text x="668" y="223" font-family="'Courier New', monospace" font-size="6" fill="#ffffff" text-anchor="middle">4</text>
    <text x="680" y="217" font-family="'Segoe UI', Arial, sans-serif" font-size="8" fill="#c9d1d9">Credential Reset</text>
    <text x="680" y="228" font-family="'Courier New', monospace" font-size="7" fill="#fbbf24">All affected accounts</text>

    <rect x="656" y="240" width="160" height="28" rx="5" fill="#0d1117" stroke="#f0883e" stroke-width="1"/>
    <circle cx="668" cy="254" r="6" fill="#f0883e"/>
    <text x="668" y="257" font-family="'Courier New', monospace" font-size="6" fill="#ffffff" text-anchor="middle">4</text>
    <text x="680" y="251" font-family="'Segoe UI', Arial, sans-serif" font-size="8" fill="#c9d1d9">Patch Deployment</text>
    <text x="680" y="262" font-family="'Courier New', monospace" font-size="7" fill="#fbbf24">Security updates apply</text>

    <rect x="656" y="274" width="160" height="28" rx="5" fill="#0d1117" stroke="#f0883e" stroke-width="1"/>
    <circle cx="668" cy="288" r="6" fill="#f0883e"/>
    <text x="668" y="291" font-family="'Courier New', monospace" font-size="6" fill="#ffffff" text-anchor="middle">4</text>
    <text x="680" y="285" font-family="'Segoe UI', Arial, sans-serif" font-size="8" fill="#c9d1d9">Backdoor Detection</text>
    <text x="680" y="296" font-family="'Courier New', monospace" font-size="7" fill="#fbbf24">Persistence mech scan</text>

    <rect x="656" y="308" width="160" height="28" rx="5" fill="#0d1117" stroke="#f0883e" stroke-width="1"/>
    <circle cx="668" cy="322" r="6" fill="#f0883e"/>
    <text x="668" y="325" font-family="'Courier New', monospace" font-size="6" fill="#ffffff" text-anchor="middle">4</text>
    <text x="680" y="319" font-family="'Segoe UI', Arial, sans-serif" font-size="8" fill="#c9d1d9">Verification Scan</text>
    <text x="680" y="330" font-family="'Courier New', monospace" font-size="7" fill="#fbbf24">Confirm clean state</text>

    <rect x="656" y="342" width="160" height="14" rx="3" fill="#d18616" opacity="0.3"/>
    <text x="736" y="353" font-family="'Courier New', monospace" font-size="7" fill="#f0883e" text-anchor="middle">Malware Analysts | SysAdmins</text>
  </g>

  <!-- Arrow 4→5 -->
  <line x1="829" y1="230" x2="849" y2="230" stroke="#bc8cff" stroke-width="2.5" marker-end="url(#irArrow)"/>

  <!-- ===== PHASE 5: Recovery ===== -->
  <g filter="url(#irShadow)">
    <rect x="852" y="100" width="175" height="260" rx="10" fill="#161b22" stroke="#bc8cff" stroke-width="2"/>
    <rect x="852" y="100" width="175" height="28" rx="10" ry="10" fill="url(#irRecover)"/>
    <rect x="852" y="118" width="175" height="10" fill="url(#irRecover)"/>
    <text x="939" y="120" font-family="'Segoe UI', Arial, sans-serif" font-size="11" fill="#ffffff" text-anchor="middle" font-weight="bold">5️⃣ RECOVERY</text>

    <rect x="864" y="138" width="150" height="28" rx="5" fill="#0d1117" stroke="#bc8cff" stroke-width="1"/>
    <circle cx="876" cy="152" r="6" fill="#bc8cff"/>
    <text x="876" y="155" font-family="'Courier New', monospace" font-size="6" fill="#ffffff" text-anchor="middle">5</text>
    <text x="888" y="149" font-family="'Segoe UI', Arial, sans-serif" font-size="8" fill="#c9d1d9">System Restoration</text>
    <text x="888" y="160" font-family="'Courier New', monospace" font-size="7" fill="#d2a8ff">From clean backups</text>

    <rect x="864" y="172" width="150" height="28" rx="5" fill="#0d1117" stroke="#bc8cff" stroke-width="1"/>
    <circle cx="876" cy="186" r="6" fill="#bc8cff"/>
    <text x="876" y="189" font-family="'Courier New', monospace" font-size="6" fill="#ffffff" text-anchor="middle">5</text>
    <text x="888" y="183" font-family="'Segoe UI', Arial, sans-serif" font-size="8" fill="#c9d1d9">Service Validation</text>
    <text x="888" y="194" font-family="'Courier New', monospace" font-size="7" fill="#d2a8ff">Functional testing</text>

    <rect x="864" y="206" width="150" height="28" rx="5" fill="#0d1117" stroke="#bc8cff" stroke-width="1"/>
    <circle cx="876" cy="220" r="6" fill="#bc8cff"/>
    <text x="876" y="223" font-family="'Courier New', monospace" font-size="6" fill="#ffffff" text-anchor="middle">5</text>
    <text x="888" y="217" font-family="'Segoe UI', Arial, sans-serif" font-size="8" fill="#c9d1d9">Monitoring Increase</text>
    <text x="888" y="228" font-family="'Courier New', monospace" font-size="7" fill="#d2a8ff">Enhanced surveillance</text>

    <rect x="864" y="240" width="150" height="28" rx="5" fill="#0d1117" stroke="#bc8cff" stroke-width="1"/>
    <circle cx="876" cy="254" r="6" fill="#bc8cff"/>
    <text x="876" y="257" font-family="'Courier New', monospace" font-size="6" fill="#ffffff" text-anchor="middle">5</text>
    <text x="888" y="251" font-family="'Segoe UI', Arial, sans-serif" font-size="8" fill="#c9d1d9">Phased Return</text>
    <text x="888" y="262" font-family="'Courier New', monospace" font-size="7" fill="#d2a8ff">Gradual re-enablement</text>

    <rect x="864" y="274" width="150" height="28" rx="5" fill="#0d1117" stroke="#bc8cff" stroke-width="1"/>
    <circle cx="876" cy="288" r="6" fill="#bc8cff"/>
    <text x="876" y="291" font-family="'Courier New', monospace" font-size="6" fill="#ffffff" text-anchor="middle">5</text>
    <text x="888" y="285" font-family="'Segoe UI', Arial, sans-serif" font-size="8" fill="#c9d1d9">User Communication</text>
    <text x="888" y="296" font-family="'Courier New', monospace" font-size="7" fill="#d2a8ff">Stakeholder updates</text>

    <rect x="864" y="308" width="150" height="28" rx="5" fill="#0d1117" stroke="#bc8cff" stroke-width="1"/>
    <circle cx="876" cy="322" r="6" fill="#bc8cff"/>
    <text x="876" y="325" font-family="'Courier New', monospace" font-size="6" fill="#ffffff" text-anchor="middle">5</text>
    <text x="888" y="319" font-family="'Segoe UI', Arial, sans-serif" font-size="8" fill="#c9d1d9">Sign-off &amp; Close</text>
    <text x="888" y="330" font-family="'Courier New', monospace" font-size="7" fill="#d2a8ff">CISO approval</text>

    <rect x="864" y="342" width="150" height="14" rx="3" fill="#8b5cf6" opacity="0.3"/>
    <text x="939" y="353" font-family="'Courier New', monospace" font-size="7" fill="#bc8cff" text-anchor="middle">IT Ops | Change Mgmt</text>
  </g>

  <!-- Arrow 5→6 -->
  <line x1="1027" y1="230" x2="1047" y2="230" stroke="#39d2c0" stroke-width="2.5" marker-end="url(#irArrow)"/>

  <!-- ===== PHASE 6: Lessons Learned ===== -->
  <g filter="url(#irShadow)">
    <rect x="1050" y="100" width="130" height="260" rx="10" fill="#161b22" stroke="#39d2c0" stroke-width="2"/>
    <rect x="1050" y="100" width="130" height="28" rx="10" ry="10" fill="url(#irLessons)"/>
    <rect x="1050" y="118" width="130" height="10" fill="url(#irLessons)"/>
    <text x="1115" y="120" font-family="'Segoe UI', Arial, sans-serif" font-size="10" fill="#ffffff" text-anchor="middle" font-weight="bold">6️⃣ LESSONS</text>

    <rect x="1062" y="138" width="105" height="28" rx="5" fill="#0d1117" stroke="#39d2c0" stroke-width="1"/>
    <circle cx="1074" cy="152" r="6" fill="#39d2c0"/>
    <text x="1074" y="155" font-family="'Courier New', monospace" font-size="6" fill="#ffffff" text-anchor="middle">6</text>
    <text x="1086" y="149" font-family="'Segoe UI', Arial, sans-serif" font-size="8" fill="#c9d1d9">Post-Mortem</text>
    <text x="1086" y="160" font-family="'Courier New', monospace" font-size="7" fill="#6ee7b7">Blameless review</text>

    <rect x="1062" y="172" width="105" height="28" rx="5" fill="#0d1117" stroke="#39d2c0" stroke-width="1"/>
    <circle cx="1074" cy="186" r="6" fill="#39d2c0"/>
    <text x="1074" y="189" font-family="'Courier New', monospace" font-size="6" fill="#ffffff" text-anchor="middle">6</text>
    <text x="1086" y="183" font-family="'Segoe UI', Arial, sans-serif" font-size="8" fill="#c9d1d9">Timeline Update</text>
    <text x="1086" y="194" font-family="'Courier New', monospace" font-size="7" fill="#6ee7b7">Full report</text>

    <rect x="1062" y="206" width="105" height="28" rx="5" fill="#0d1117" stroke="#39d2c0" stroke-width="1"/>
    <circle cx="1074" cy="220" r="6" fill="#39d2c0"/>
    <text x="1074" y="223" font-family="'Courier New', monospace" font-size="6" fill="#ffffff" text-anchor="middle">6</text>
    <text x="1086" y="217" font-family="'Segoe UI', Arial, sans-serif" font-size="8" fill="#c9d1d9">Gap Analysis</text>
    <text x="1086" y="228" font-family="'Courier New', monospace" font-size="7" fill="#6ee7b7">Process improve</text>

    <rect x="1062" y="240" width="105" height="28" rx="5" fill="#0d1117" stroke="#39d2c0" stroke-width="1"/>
    <circle cx="1074" cy="254" r="6" fill="#39d2c0"/>
    <text x="1074" y="257" font-family="'Courier New', monospace" font-size="6" fill="#ffffff" text-anchor="middle">6</text>
    <text x="1086" y="251" font-family="'Segoe UI', Arial, sans-serif" font-size="8" fill="#c9d1d9">Playbook Update</text>
    <text x="1086" y="262" font-family="'Courier New', monospace" font-size="7" fill="#6ee7b7">New procedures</text>

    <rect x="1062" y="274" width="105" height="28" rx="5" fill="#0d1117" stroke="#39d2c0" stroke-width="1"/>
    <circle cx="1074" cy="288" r="6" fill="#39d2c0"/>
    <text x="1074" y="291" font-family="'Courier New', monospace" font-size="6" fill="#ffffff" text-anchor="middle">6</text>
    <text x="1086" y="285" font-family="'Segoe UI', Arial, sans-serif" font-size="8" fill="#c9d1d9">Training Update</text>
    <text x="1086" y="296" font-family="'Courier New', monospace" font-size="7" fill="#6ee7b7">Staff education</text>

    <rect x="1062" y="308" width="105" height="28" rx="5" fill="#0d1117" stroke="#39d2c0" stroke-width="1"/>
    <circle cx="1074" cy="322" r="6" fill="#39d2c0"/>
    <text x="1074" y="325" font-family="'Courier New', monospace" font-size="6" fill="#ffffff" text-anchor="middle">6</text>
    <text x="1086" y="319" font-family="'Segoe UI', Arial, sans-serif" font-size="8" fill="#c9d1d9">Metrics Report</text>
    <text x="1086" y="330" font-family="'Courier New', monospace" font-size="7" fill="#6ee7b7">KPI dashboard</text>

    <rect x="1062" y="342" width="105" height="14" rx="3" fill="#1a9e8f" opacity="0.3"/>
    <text x="1115" y="353" font-family="'Courier New', monospace" font-size="7" fill="#39d2c0" text-anchor="middle">All Teams | Mgmt</text>
  </g>

  <!-- Feedback loop arrow back to Phase 1 -->
  <path d="M1115,365 L1115,390 Q1115,400 1105,400 L115,400 Q105,400 105,390 L105,365" fill="none" stroke="#39d2c0" stroke-width="1.5" stroke-dasharray="5,3" marker-end="url(#irArrow)"/>
  <text x="600" y="397" font-family="'Courier New', monospace" font-size="7" fill="#39d2c0" text-anchor="middle">Continuous Improvement Loop — Feed lessons back into preparation phase</text>

  <!-- ===== Bottom Section: Communication Flows & Escalation ===== -->

  <!-- Escalation Matrix -->
  <g filter="url(#irShadow)">
    <rect x="20" y="415" width="390" height="130" rx="10" fill="#161b22" stroke="#f85149" stroke-width="1.5"/>
    <rect x="20" y="415" width="390" height="26" rx="10" ry="10" fill="#f85149"/>
    <rect x="20" y="433" width="390" height="8" fill="#f85149"/>
    <text x="215" y="433" font-family="'Segoe UI', Arial, sans-serif" font-size="11" fill="#ffffff" text-anchor="middle" font-weight="bold">📋 Escalation Matrix</text>

    <!-- P1 -->
    <rect x="35" y="450" width="355" height="18" rx="4" fill="#0d1117" stroke="#f85149" stroke-width="1"/>
    <rect x="35" y="450" width="355" height="18" rx="4" fill="#f85149" opacity="0.15"/>
    <text x="45" y="463" font-family="'Courier New', monospace" font-size="8" fill="#f85149" font-weight="bold">P1:</text>
    <text x="70" y="463" font-family="'Courier New', monospace" font-size="8" fill="#c9d1d9">SOC → IR Commander → CISO → CTO → CEO (15min SLA)</text>

    <!-- P2 -->
    <rect x="35" y="472" width="355" height="18" rx="4" fill="#0d1117" stroke="#f0883e" stroke-width="1"/>
    <rect x="35" y="472" width="355" height="18" rx="4" fill="#f0883e" opacity="0.1"/>
    <text x="45" y="485" font-family="'Courier New', monospace" font-size="8" fill="#f0883e" font-weight="bold">P2:</text>
    <text x="70" y="485" font-family="'Courier New', monospace" font-size="8" fill="#c9d1d9">SOC → IR Commander → Security Director (1hr SLA)</text>

    <!-- P3 -->
    <rect x="35" y="494" width="355" height="18" rx="4" fill="#0d1117" stroke="#d29922" stroke-width="1"/>
    <rect x="35" y="494" width="355" height="18" rx="4" fill="#d29922" opacity="0.1"/>
    <text x="45" y="507" font-family="'Courier New', monospace" font-size="8" fill="#d29922" font-weight="bold">P3:</text>
    <text x="70" y="507" font-family="'Courier New', monospace" font-size="8" fill="#c9d1d9">SOC → Tier 2 Analyst → Team Lead (4hr SLA)</text>

    <!-- P4 -->
    <rect x="35" y="516" width="355" height="18" rx="4" fill="#0d1117" stroke="#3fb950" stroke-width="1"/>
    <rect x="35" y="516" width="355" height="18" rx="4" fill="#3fb950" opacity="0.1"/>
    <text x="45" y="529" font-family="'Courier New', monospace" font-size="8" fill="#3fb950" font-weight="bold">P4:</text>
    <text x="70" y="529" font-family="'Courier New', monospace" font-size="8" fill="#c9d1d9">SOC → Auto-ticket → Standard workflow (24hr SLA)</text>
  </g>

  <!-- Communication Channels -->
  <g filter="url(#irShadow)">
    <rect x="425" y="415" width="370" height="130" rx="10" fill="#161b22" stroke="#58a6ff" stroke-width="1.5"/>
    <rect x="425" y="415" width="370" height="26" rx="10" ry="10" fill="#1f6feb"/>
    <rect x="425" y="433" width="370" height="8" fill="#1f6feb"/>
    <text x="610" y="433" font-family="'Segoe UI', Arial, sans-serif" font-size="11" fill="#ffffff" text-anchor="middle" font-weight="bold">📡 Communication Channels</text>

    <rect x="440" y="450" width="110" height="45" rx="5" fill="#0d1117" stroke="#58a6ff" stroke-width="1"/>
    <text x="495" y="467" font-family="'Segoe UI', Arial, sans-serif" font-size="9" fill="#58a6ff" text-anchor="middle">Encrypted Chat</text>
    <text x="495" y="480" font-family="'Courier New', monospace" font-size="7" fill="#8b949e" text-anchor="middle">Slack #incident-cmd</text>
    <text x="495" y="490" font-family="'Courier New', monospace" font-size="7" fill="#3fb950" text-anchor="middle">E2E encrypted ✓</text>

    <rect x="558" y="450" width="110" height="45" rx="5" fill="#0d1117" stroke="#58a6ff" stroke-width="1"/>
    <text x="613" y="467" font-family="'Segoe UI', Arial, sans-serif" font-size="9" fill="#58a6ff" text-anchor="middle">Voice Bridge</text>
    <text x="613" y="480" font-family="'Courier New', monospace" font-size="7" fill="#8b949e" text-anchor="middle">Zoom + Phone</text>
    <text x="613" y="490" font-family="'Courier New', monospace" font-size="7" fill="#3fb950" text-anchor="middle">Auto-dial ✓</text>

    <rect x="676" y="450" width="105" height="45" rx="5" fill="#0d1117" stroke="#58a6ff" stroke-width="1"/>
    <text x="728" y="467" font-family="'Segoe UI', Arial, sans-serif" font-size="9" fill="#58a6ff" text-anchor="middle">Ticketing</text>
    <text x="728" y="480" font-family="'Courier New', monospace" font-size="7" fill="#8b949e" text-anchor="middle">Jira + ServiceNow</text>
    <text x="728" y="490" font-family="'Courier New', monospace" font-size="7" fill="#3fb950" text-anchor="middle">Auto-create ✓</text>

    <text x="440" y="515" font-family="'Segoe UI', Arial, sans-serif" font-size="8" fill="#8b949e">External Comms:</text>
    <text x="535" y="515" font-family="'Courier New', monospace" font-size="7" fill="#c9d1d9">Legal counsel</text>
    <text x="610" y="515" font-family="'Courier New', monospace" font-size="7" fill="#c9d1d9">PR team</text>
    <text x="670" y="515" font-family="'Courier New', monospace" font-size="7" fill="#c9d1d9">Regulators</text>
    <text x="735" y="515" font-family="'Courier New', monospace" font-size="7" fill="#c9d1d9">Law enforcement</text>

    <text x="440" y="530" font-family="'Segoe UI', Arial, sans-serif" font-size="8" fill="#8b949e">Status Page:</text>
    <rect x="510" y="522" width="80" height="14" rx="3" fill="#238636"/>
    <text x="550" y="532" font-family="'Courier New', monospace" font-size="7" fill="#ffffff" text-anchor="middle">Atlassian Status</text>
    <text x="600" y="532" font-family="'Courier New', monospace" font-size="8" fill="#8b949e">Auto-update ✓</text>
  </g>

  <!-- IR Metrics -->
  <g filter="url(#irShadow)">
    <rect x="810" y="415" width="370" height="130" rx="10" fill="#161b22" stroke="#bc8cff" stroke-width="1.5"/>
    <rect x="810" y="415" width="370" height="26" rx="10" ry="10" fill="#8b5cf6"/>
    <rect x="810" y="433" width="370" height="8" fill="#8b5cf6"/>
    <text x="995" y="433" font-family="'Segoe UI', Arial, sans-serif" font-size="11" fill="#ffffff" text-anchor="middle" font-weight="bold">📊 IR Performance Metrics (2024)</text>

    <text x="825" y="455" font-family="'Segoe UI', Arial, sans-serif" font-size="8" fill="#8b949e">MTTD (Mean Time to Detect):</text>
    <rect x="985" y="447" width="80" height="12" rx="3" fill="#21262d"/>
    <rect x="985" y="447" width="60" height="12" rx="3" fill="#3fb950"/>
    <text x="1070" y="457" font-family="'Courier New', monospace" font-size="8" fill="#3fb950">4.2 min</text>

    <text x="825" y="473" font-family="'Segoe UI', Arial, sans-serif" font-size="8" fill="#8b949e">MTTR (Mean Time to Respond):</text>
    <rect x="985" y="465" width="80" height="12" rx="3" fill="#21262d"/>
    <rect x="985" y="465" width="50" height="12" rx="3" fill="#58a6ff"/>
    <text x="1070" y="475" font-family="'Courier New', monospace" font-size="8" fill="#58a6ff">12 min</text>

    <text x="825" y="491" font-family="'Segoe UI', Arial, sans-serif" font-size="8" fill="#8b949e">MTTC (Mean Time to Contain):</text>
    <rect x="985" y="483" width="80" height="12" rx="3" fill="#21262d"/>
    <rect x="985" y="483" width="45" height="12" rx="3" fill="#f0883e"/>
    <text x="1070" y="493" font-family="'Courier New', monospace" font-size="8" fill="#f0883e">28 min</text>

    <text x="825" y="509" font-family="'Segoe UI', Arial, sans-serif" font-size="8" fill="#8b949e">Incidents Resolved:</text>
    <text x="935" y="509" font-family="'Courier New', monospace" font-size="8" fill="#3fb950">847/847 (100%)</text>
    <text x="1040" y="509" font-family="'Segoe UI', Arial, sans-serif" font-size="8" fill="#8b949e">Auto-resolved:</text>
    <text x="1120" y="509" font-family="'Courier New', monospace" font-size="8" fill="#58a6ff">68%</text>

    <text x="825" y="525" font-family="'Segoe UI', Arial, sans-serif" font-size="8" fill="#8b949e">False Positive Rate:</text>
    <rect x="935" y="517" width="60" height="12" rx="3" fill="#21262d"/>
    <rect x="935" y="517" width="8" height="12" rx="3" fill="#f85149"/>
    <text x="1000" y="527" font-family="'Courier New', monospace" font-size="8" fill="#3fb950">1.2%</text>
    <text x="1040" y="527" font-family="'Segoe UI', Arial, sans-serif" font-size="8" fill="#8b949e">Playbooks:</text>
    <text x="1100" y="527" font-family="'Courier New', monospace" font-size="8" fill="#3fb950">42 active</text>

    <!-- Mini chart -->
    <polyline points="825,540 845,538 865,540 885,535 905,537 925,533 945,535 965,530 985,532 1005,528 1025,530 1045,525 1065,527 1085,523 1105,525 1125,520 1145,522 1165,518" fill="none" stroke="#bc8cff" stroke-width="1" opacity="0.6"/>
  </g>

  <!-- ===== Bottom: SOC Team Structure ===== -->
  <g filter="url(#irShadow)">
    <rect x="20" y="560" width="1160" height="125" rx="10" fill="#161b22" stroke="#d29922" stroke-width="1.5"/>
    <rect x="20" y="560" width="1160" height="26" rx="10" ry="10" fill="#d29922"/>
    <rect x="20" y="578" width="1160" height="8" fill="#d29922"/>
    <text x="600" y="578" font-family="'Segoe UI', Arial, sans-serif" font-size="11" fill="#0d1117" text-anchor="middle" font-weight="bold">👥 SOC Team Structure &amp; Responsibilities</text>

    <!-- Tier 1 -->
    <rect x="35" y="595" width="155" height="75" rx="6" fill="#0d1117" stroke="#58a6ff" stroke-width="1"/>
    <rect x="35" y="595" width="155" height="18" rx="6" ry="6" fill="#1f6feb"/>
    <rect x="35" y="607" width="155" height="6" fill="#1f6feb"/>
    <text x="112" y="608" font-family="'Segoe UI', Arial, sans-serif" font-size="9" fill="#ffffff" text-anchor="middle" font-weight="bold">Tier 1: Triage</text>
    <text x="45" y="625" font-family="'Courier New', monospace" font-size="7" fill="#8b949e">• Alert monitoring 24/7</text>
    <text x="45" y="637" font-family="'Courier New', monospace" font-size="7" fill="#8b949e">• Initial classification</text>
    <text x="45" y="649" font-family="'Courier New', monospace" font-size="7" fill="#8b949e">• Ticket creation</text>
    <text x="45" y="661" font-family="'Courier New', monospace" font-size="7" fill="#3fb950">Staff: 8 analysts (shifts)</text>

    <!-- Tier 2 -->
    <rect x="200" y="595" width="155" height="75" rx="6" fill="#0d1117" stroke="#f0883e" stroke-width="1"/>
    <rect x="200" y="595" width="155" height="18" rx="6" ry="6" fill="#d18616"/>
    <rect x="200" y="607" width="155" height="6" fill="#d18616"/>
    <text x="277" y="608" font-family="'Segoe UI', Arial, sans-serif" font-size="9" fill="#ffffff" text-anchor="middle" font-weight="bold">Tier 2: Investigation</text>
    <text x="210" y="625" font-family="'Courier New', monospace" font-size="7" fill="#8b949e">• Deep analysis</text>
    <text x="210" y="637" font-family="'Courier New', monospace" font-size="7" fill="#8b949e">• Threat hunting</text>
    <text x="210" y="649" font-family="'Courier New', monospace" font-size="7" fill="#8b949e">• IOC extraction</text>
    <text x="210" y="661" font-family="'Courier New', monospace" font-size="7" fill="#3fb950">Staff: 5 senior analysts</text>

    <!-- Tier 3 -->
    <rect x="365" y="595" width="155" height="75" rx="6" fill="#0d1117" stroke="#f85149" stroke-width="1"/>
    <rect x="365" y="595" width="155" height="18" rx="6" ry="6" fill="#da3633"/>
    <rect x="365" y="607" width="155" height="6" fill="#da3633"/>
    <text x="442" y="608" font-family="'Segoe UI', Arial, sans-serif" font-size="9" fill="#ffffff" text-anchor="middle" font-weight="bold">Tier 3: IR / Forensics</text>
    <text x="375" y="625" font-family="'Courier New', monospace" font-size="7" fill="#8b949e">• Incident response</text>
    <text x="375" y="637" font-family="'Courier New', monospace" font-size="7" fill="#8b949e">• Digital forensics</text>
    <text x="375" y="649" font-family="'Courier New', monospace" font-size="7" fill="#8b949e">• Malware reverse eng</text>
    <text x="375" y="661" font-family="'Courier New', monospace" font-size="7" fill="#3fb950">Staff: 4 IR specialists</text>

    <!-- IR Commander -->
    <rect x="530" y="595" width="155" height="75" rx="6" fill="#0d1117" stroke="#bc8cff" stroke-width="1"/>
    <rect x="530" y="595" width="155" height="18" rx="6" ry="6" fill="#8b5cf6"/>
    <rect x="530" y="607" width="155" height="6" fill="#8b5cf6"/>
    <text x="607" y="608" font-family="'Segoe UI', Arial, sans-serif" font-size="9" fill="#ffffff" text-anchor="middle" font-weight="bold">IR Commander</text>
    <text x="540" y="625" font-family="'Courier New', monospace" font-size="7" fill="#8b949e">• Overall coordination</text>
    <text x="540" y="637" font-family="'Courier New', monospace" font-size="7" fill="#8b949e">• Decision authority</text>
    <text x="540" y="649" font-family="'Courier New', monospace" font-size="7" fill="#8b949e">• External comms</text>
    <text x="540" y="661" font-family="'Courier New', monospace" font-size="7" fill="#3fb950">Lead: Security Director</text>

    <!-- Threat Intel -->
    <rect x="695" y="595" width="155" height="75" rx="6" fill="#0d1117" stroke="#39d2c0" stroke-width="1"/>
    <rect x="695" y="595" width="155" height="18" rx="6" ry="6" fill="#1a9e8f"/>
    <rect x="695" y="607" width="155" height="6" fill="#1a9e8f"/>
    <text x="772" y="608" font-family="'Segoe UI', Arial, sans-serif" font-size="9" fill="#ffffff" text-anchor="middle" font-weight="bold">Threat Intel Team</text>
    <text x="705" y="625" font-family="'Courier New', monospace" font-size="7" fill="#8b949e">• CTI analysis</text>
    <text x="705" y="637" font-family="'Courier New', monospace" font-size="7" fill="#8b949e">• TI platform mgmt</text>
    <text x="705" y="649" font-family="'Courier New', monospace" font-size="7" fill="#8b949e">• Adversary tracking</text>
    <text x="705" y="661" font-family="'Courier New', monospace" font-size="7" fill="#3fb950">Staff: 3 CTI analysts</text>

    <!-- SOAR/Engineering -->
    <rect x="860" y="595" width="155" height="75" rx="6" fill="#0d1117" stroke="#fbbf24" stroke-width="1"/>
    <rect x="860" y="595" width="155" height="18" rx="6" ry="6" fill="#9e6a03"/>
    <rect x="860" y="607" width="155" height="6" fill="#9e6a03"/>
    <text x="937" y="608" font-family="'Segoe UI', Arial, sans-serif" font-size="9" fill="#ffffff" text-anchor="middle" font-weight="bold">SOC Engineering</text>
    <text x="870" y="625" font-family="'Courier New', monospace" font-size="7" fill="#8b949e">• SIEM/SOAR tuning</text>
    <text x="870" y="637" font-family="'Courier New', monospace" font-size="7" fill="#8b949e">• Detection engineering</text>
    <text x="870" y="649" font-family="'Courier New', monospace" font-size="7" fill="#8b949e">• Automation dev</text>
    <text x="870" y="661" font-family="'Courier New', monospace" font-size="7" fill="#3fb950">Staff: 4 engineers</text>

    <!-- Metrics -->
    <rect x="1025" y="595" width="140" height="75" rx="6" fill="#0d1117" stroke="#3fb950" stroke-width="1"/>
    <rect x="1025" y="595" width="140" height="18" rx="6" ry="6" fill="#238636"/>
    <rect x="1025" y="607" width="140" height="6" fill="#238636"/>
    <text x="1095" y="608" font-family="'Segoe UI', Arial, sans-serif" font-size="9" fill="#ffffff" text-anchor="middle" font-weight="bold">📊 SOC Metrics</text>
    <text x="1035" y="625" font-family="'Courier New', monospace" font-size="7" fill="#8b949e">Total team: 24 members</text>
    <text x="1035" y="637" font-family="'Courier New', monospace" font-size="7" fill="#8b949e">Coverage: 24/7/365</text>
    <text x="1035" y="649" font-family="'Courier New', monospace" font-size="7" fill="#8b949e">Tools: 35+ integrated</text>
    <text x="1035" y="661" font-family="'Courier New', monospace" font-size="7" fill="#3fb950">Avg MTTD: 4.2min ✓</text>
  </g>
</svg>